<svg width="58" height="62" viewBox="0 0 58 62" fill="none" xmlns="http://www.w3.org/2000/svg">
<path d="M31.0418 24.515C31.6459 23.4496 33.9247 19.7775 35.1942 17.3068C38.123 11.6022 41.1895 5.98069 45.709 1.13744C46.4126 0.381867 47.2461 -1.09906 51.8038 1.35657C56.545 3.91797 58.7704 6.38871 57.7609 7.82431C55.3139 11.3 52.1862 14.4432 51.0085 18.5611C49.2802 24.5981 45.7014 29.6303 43.0172 35.1535C41.809 37.6318 40.486 40.0497 39.1707 42.4675L37.213 46.1018L36.2647 47.9379L34.8883 50.6429C34.3453 51.7007 33.833 52.8038 33.2594 53.8541C32.6859 54.9043 32.0588 55.8865 31.3935 56.7706C30.04 58.5386 28.5029 59.8987 26.6447 60.8205C24.817 61.7725 22.5228 62.1503 20.3893 61.9463C18.2557 61.7196 16.321 60.9716 14.5468 59.672C13.0174 58.5689 11.6562 56.9821 10.4939 55.1234C9.91267 54.1941 9.40029 53.1892 8.89558 52.2145L8.14617 50.7562L7.77908 50.0308C7.74084 49.9628 7.72558 49.9175 7.71793 49.8948L7.67971 49.7966L7.60321 49.6002C6.76202 47.4996 5.96673 45.3689 4.99554 43.344C4.53672 42.392 3.04552 41.8177 2.51022 40.7977C2.06668 39.9515 1.25605 38.5838 1.14135 37.5487C1.08782 37.1029 1.08016 36.6118 0.705452 36.3776C-1.01516 35.2744 0.323117 33.8917 5.69907 31.3379C6.88438 30.7787 8.25323 29.7587 9.24736 29.6756C9.2856 29.6756 9.3697 29.6605 9.41558 29.6529C13.1856 28.9351 12.4974 30.9676 13.308 32.101C15.2886 34.8891 17.1851 37.7225 19.0663 40.5786L19.7699 41.6515C19.9916 41.9839 20.3052 42.4751 20.2899 42.4297L20.634 42.8755C20.8481 43.1627 21.0699 43.4347 21.3452 43.6084C21.5134 43.7142 21.7122 43.8125 21.9187 43.8125C22.1328 43.82 22.3393 43.7218 22.4846 43.5631C22.7752 43.2382 22.8975 42.6791 22.7752 42.1804C22.7446 42.0444 22.584 41.8328 22.4693 41.7119L22.4005 41.6288C22.4005 41.6062 22.3699 41.6364 22.3928 41.5759C22.4234 41.5079 22.4464 41.4399 22.4846 41.3795C22.6146 41.1226 22.7828 40.8808 23.0199 40.6844L23.0046 40.6995C23.4252 39.551 23.6928 38.3269 24.2893 37.2691C26.5223 33.2646 28.4111 28.852 30.927 25.2101C31.0112 25.0515 30.9118 24.7417 31.0418 24.515Z" fill="#202D74"/>
<path d="M31.0418 24.515C31.6459 23.4496 33.9247 19.7775 35.1942 17.3068C38.123 11.6022 41.1895 5.98069 45.709 1.13744C46.4126 0.381867 47.2461 -1.09906 51.8038 1.35657C56.545 3.91797 58.7704 6.38871 57.7609 7.82431C55.3139 11.3 52.1862 14.4432 51.0085 18.5611C49.2802 24.5981 45.7014 29.6303 43.0172 35.1535C41.809 37.6318 40.486 40.0497 39.1707 42.4675L37.213 46.1018L36.2647 47.9379L34.8883 50.6429C34.3453 51.7007 33.833 52.8038 33.2594 53.8541C32.6859 54.9043 32.0588 55.8865 31.3935 56.7706C30.04 58.5386 28.5029 59.8987 26.6447 60.8205C24.817 61.7725 22.5228 62.1503 20.3893 61.9463C18.2557 61.7196 16.321 60.9716 14.5468 59.672C13.0174 58.5689 11.6562 56.9821 10.4939 55.1234C9.91267 54.1941 9.40029 53.1892 8.89558 52.2145L8.14617 50.7562L7.77908 50.0308C7.74084 49.9628 7.72558 49.9175 7.71793 49.8948L7.67971 49.7966L7.60321 49.6002C6.76202 47.4996 5.96673 45.3689 4.99554 43.344C4.53672 42.392 3.04552 41.8177 2.51022 40.7977C2.06668 39.9515 1.25605 38.5838 1.14135 37.5487C1.08782 37.1029 1.08016 36.6118 0.705452 36.3776C-1.01516 35.2744 0.323117 33.8917 5.69907 31.3379C6.88438 30.7787 8.25323 29.7587 9.24736 29.6756C9.2856 29.6756 9.3697 29.6605 9.41558 29.6529C13.1856 28.9351 12.4974 30.9676 13.308 32.101C15.2886 34.8891 17.1851 37.7225 19.0663 40.5786L19.7699 41.6515C19.9916 41.9839 20.3052 42.4751 20.2899 42.4297L20.634 42.8755C20.8481 43.1627 21.0699 43.4347 21.3452 43.6084C21.5134 43.7142 21.7122 43.8125 21.9187 43.8125C22.1328 43.82 22.3393 43.7218 22.4846 43.5631C22.7752 43.2382 22.8975 42.6791 22.7752 42.1804C22.7446 42.0444 22.584 41.8328 22.4693 41.7119L22.4005 41.6288C22.4005 41.6062 22.3699 41.6364 22.3928 41.5759C22.4234 41.5079 22.4464 41.4399 22.4846 41.3795C22.6146 41.1226 22.7828 40.8808 23.0199 40.6844L23.0046 40.6995C23.4252 39.551 23.6928 38.3269 24.2893 37.2691C26.5223 33.2646 28.4111 28.852 30.927 25.2101C31.0112 25.0515 30.9118 24.7417 31.0418 24.515Z" fill="black" fill-opacity="0.2"/>
</svg>
