<svg width="36" height="36" viewBox="0 0 36 36" fill="none" xmlns="http://www.w3.org/2000/svg">
<mask id="mask0_467_4634" style="mask-type:alpha" maskUnits="userSpaceOnUse" x="0" y="0" width="36" height="36">
<rect width="36" height="36" fill="#D9D9D9"/>
</mask>
<g mask="url(#mask0_467_4634)">
<path d="M8.09648 30.5998C7.35398 30.5998 6.71836 30.3354 6.18961 29.8067C5.66086 29.2779 5.39648 28.6423 5.39648 27.8998V8.09978C5.39648 7.35728 5.66086 6.72166 6.18961 6.19291C6.71836 5.66416 7.35398 5.39978 8.09648 5.39978H17.9965V8.09978H8.09648V27.8998H27.8965V17.9998H30.5965V27.8998C30.5965 28.6423 30.3321 29.2779 29.8034 29.8067C29.2746 30.3354 28.639 30.5998 27.8965 30.5998H8.09648ZM14.509 23.3998L12.5965 21.4873L25.984 8.09978H21.5965V5.39978H30.5965V14.3998H27.8965V10.0123L14.509 23.3998Z" fill="#434343"/>
</g>
</svg>
