<svg width="32" height="26" viewBox="0 0 32 26" fill="none" xmlns="http://www.w3.org/2000/svg">
<path d="M3.16667 25.9998C2.29583 25.9998 1.55035 25.6898 0.930208 25.0696C0.310069 24.4495 0 23.704 0 22.8332V3.83317C0 2.96234 0.310069 2.21685 0.930208 1.59671C1.55035 0.976573 2.29583 0.666504 3.16667 0.666504H12.6667L15.8333 3.83317H28.5C29.3708 3.83317 30.1163 4.14324 30.7365 4.76338C31.3566 5.38352 31.6667 6.129 31.6667 6.99984V22.8332C31.6667 23.704 31.3566 24.4495 30.7365 25.0696C30.1163 25.6898 29.3708 25.9998 28.5 25.9998H3.16667ZM3.16667 22.8332H28.5V6.99984H14.5271L11.3604 3.83317H3.16667V22.8332Z" fill="#757575"/>
</svg>
