<svg width="18" height="18" viewBox="0 0 18 18" fill="none" xmlns="http://www.w3.org/2000/svg">
<path d="M9 17.3333C7.84723 17.3333 6.76389 17.1146 5.75 16.6771C4.73612 16.2396 3.85417 15.6458 3.10417 14.8958C2.35417 14.1458 1.76042 13.2639 1.32292 12.25C0.885422 11.2361 0.666672 10.1528 0.666672 8.99999C0.666672 7.84721 0.885422 6.76388 1.32292 5.74999C1.76042 4.7361 2.35417 3.85416 3.10417 3.10416C3.85417 2.35416 4.73612 1.76041 5.75 1.32291C6.76389 0.885406 7.84723 0.666656 9 0.666656C10.1528 0.666656 11.2361 0.885406 12.25 1.32291C13.2639 1.76041 14.1458 2.35416 14.8958 3.10416C15.6458 3.85416 16.2396 4.7361 16.6771 5.74999C17.1146 6.76388 17.3333 7.84721 17.3333 8.99999C17.3333 9.37499 17.3125 9.74304 17.2708 10.1042C17.2292 10.4653 17.1597 10.8194 17.0625 11.1667C16.8681 10.9444 16.6424 10.7569 16.3854 10.6042C16.1285 10.4514 15.8472 10.3472 15.5417 10.2917C15.5833 10.0833 15.6146 9.87152 15.6354 9.65624C15.6563 9.44096 15.6667 9.22221 15.6667 8.99999C15.6667 7.13888 15.0208 5.56249 13.7292 4.27082C12.4375 2.97916 10.8611 2.33332 9 2.33332C7.13889 2.33332 5.56251 2.97916 4.27084 4.27082C2.97917 5.56249 2.33334 7.13888 2.33334 8.99999C2.33334 10.8611 2.97917 12.4375 4.27084 13.7292C5.56251 15.0208 7.13889 15.6667 9 15.6667C9.70834 15.6667 10.3854 15.5625 11.0313 15.3542C11.6771 15.1458 12.2708 14.8542 12.8125 14.4792C12.9792 14.7153 13.184 14.9236 13.4271 15.1042C13.6701 15.2847 13.9306 15.4236 14.2083 15.5208C13.5 16.0903 12.7049 16.5347 11.8229 16.8542C10.941 17.1736 10 17.3333 9 17.3333ZM15.0417 14C14.75 14 14.5035 13.8993 14.3021 13.6979C14.1007 13.4965 14 13.25 14 12.9583C14 12.6667 14.1007 12.4201 14.3021 12.2187C14.5035 12.0174 14.75 11.9167 15.0417 11.9167C15.3333 11.9167 15.5799 12.0174 15.7813 12.2187C15.9826 12.4201 16.0833 12.6667 16.0833 12.9583C16.0833 13.25 15.9826 13.4965 15.7813 13.6979C15.5799 13.8993 15.3333 14 15.0417 14ZM11.75 12.9167L8.16667 9.33332V4.83332H9.83334V8.66666L12.9167 11.75L11.75 12.9167Z" fill="white"/>
</svg>
