<svg width="21" height="20" viewBox="0 0 21 20" fill="none" xmlns="http://www.w3.org/2000/svg">
<mask id="mask0_799_10289" style="mask-type:alpha" maskUnits="userSpaceOnUse" x="0" y="0" width="21" height="20">
<rect x="0.5" width="20" height="20" fill="#D9D9D9"/>
</mask>
<g mask="url(#mask0_799_10289)">
<path d="M6.33301 17.5C5.87467 17.5 5.48231 17.3368 5.15592 17.0104C4.82954 16.684 4.66634 16.2917 4.66634 15.8333V5H3.83301V3.33333H7.99967V2.5H12.9997V3.33333H17.1663V5H16.333V15.8333C16.333 16.2917 16.1698 16.684 15.8434 17.0104C15.517 17.3368 15.1247 17.5 14.6663 17.5H6.33301ZM14.6663 5H6.33301V15.8333H14.6663V5ZM7.99967 14.1667H9.66634V6.66667H7.99967V14.1667ZM11.333 14.1667H12.9997V6.66667H11.333V14.1667Z" fill="white"/>
</g>
</svg>
