<svg width="57" height="71" viewBox="0 0 57 71" fill="none" xmlns="http://www.w3.org/2000/svg">
<path d="M29.3771 21.2693C27.6349 23.4327 24.6613 26.5689 23.8545 27.4903C23.6814 27.686 23.7162 28.0095 23.6017 28.1479C20.4021 31.2066 17.661 35.1467 14.6652 38.6178C13.8674 39.5333 13.1706 40.3809 12.5267 41.4208C12.2548 41.5653 5.50154 48.8992 5.32233 49.1245C-1.6536 57.8963 1.6468 57.0454 1.54581 57.5351C4.48398 58.141 10.2331 62.7228 12.2154 62.1595C14.2215 61.632 16.0016 60.6104 17.6843 59.1522C18.5145 58.4207 19.327 57.5854 20.1008 56.6726C20.8747 55.7598 21.5993 54.7829 22.3447 53.8566L24.2391 51.4853L25.5387 49.8786L28.19 46.7146C29.9666 44.6122 31.7506 42.5114 33.4345 40.3282C37.1788 35.4609 41.7003 31.2553 44.6123 25.6917C46.5973 21.8965 50.2954 19.4498 53.3941 16.54C54.6726 15.3379 52.9921 12.4686 48.8659 9.00238C44.8981 5.67685 43.7827 6.9589 42.941 7.55681C37.5365 11.3874 33.3978 16.2738 29.3771 21.2693Z" fill="#202D74"/>
<path d="M29.3771 21.2693C27.6349 23.4327 24.6613 26.5689 23.8545 27.4903C23.6814 27.686 23.7162 28.0095 23.6017 28.1479C20.4021 31.2066 17.661 35.1467 14.6652 38.6178C13.8674 39.5333 13.1706 40.3809 12.5267 41.4208C12.2548 41.5653 5.50154 48.8992 5.32233 49.1245C-1.6536 57.8963 1.6468 57.0454 1.54581 57.5351C4.48398 58.141 10.2331 62.7228 12.2154 62.1595C14.2215 61.632 16.0016 60.6104 17.6843 59.1522C18.5145 58.4207 19.327 57.5854 20.1008 56.6726C20.8747 55.7598 21.5993 54.7829 22.3447 53.8566L24.2391 51.4853L25.5387 49.8786L28.19 46.7146C29.9666 44.6122 31.7506 42.5114 33.4345 40.3282C37.1788 35.4609 41.7003 31.2553 44.6123 25.6917C46.5973 21.8965 50.2954 19.4498 53.3941 16.54C54.6726 15.3379 52.9921 12.4686 48.8659 9.00238C44.8981 5.67685 43.7827 6.9589 42.941 7.55681C37.5365 11.3874 33.3978 16.2738 29.3771 21.2693Z" fill="black" fill-opacity="0.2"/>
<path d="M26.4818 22.6482C28.251 24.7897 31.2636 27.8883 32.082 28.7995C32.2575 28.9931 32.2268 29.317 32.343 29.4539C35.5806 32.4723 38.3709 36.3778 41.41 39.811C42.2192 40.7165 42.9266 41.5553 43.5835 42.587C43.8571 42.7281 50.7018 49.9767 50.8838 50.1998C57.9691 58.8835 54.6583 58.074 54.7654 58.5624C51.8351 59.2051 46.1439 63.8586 44.1547 63.3202C42.1421 62.8179 40.3494 61.8186 38.6485 60.3816C37.8092 59.6606 36.9863 58.8355 36.2011 57.9325C35.4159 57.0295 34.6791 56.0618 33.9221 55.1448L31.9981 52.7975L30.6785 51.2073L27.9877 48.0767C26.185 45.9968 24.3748 43.9185 22.6637 41.7566C18.8586 36.9366 14.2847 32.7879 11.3033 27.2613C9.27081 23.4913 5.54234 21.0911 2.40748 18.2204C1.11394 17.0343 2.75833 14.1442 6.84077 10.6266C10.7666 7.25158 11.898 8.51955 12.7471 9.10687C18.1992 12.8695 22.3988 17.7035 26.4818 22.6482Z" fill="#202D74"/>
<path d="M26.4818 22.6482C28.251 24.7897 31.2636 27.8883 32.082 28.7995C32.2575 28.9931 32.2268 29.317 32.343 29.4539C35.5806 32.4723 38.3709 36.3778 41.41 39.811C42.2192 40.7165 42.9266 41.5553 43.5835 42.587C43.8571 42.7281 50.7018 49.9767 50.8838 50.1998C57.9691 58.8835 54.6583 58.074 54.7654 58.5624C51.8351 59.2051 46.1439 63.8586 44.1547 63.3202C42.1421 62.8179 40.3494 61.8186 38.6485 60.3816C37.8092 59.6606 36.9863 58.8355 36.2011 57.9325C35.4159 57.0295 34.6791 56.0618 33.9221 55.1448L31.9981 52.7975L30.6785 51.2073L27.9877 48.0767C26.185 45.9968 24.3748 43.9185 22.6637 41.7566C18.8586 36.9366 14.2847 32.7879 11.3033 27.2613C9.27081 23.4913 5.54234 21.0911 2.40748 18.2204C1.11394 17.0343 2.75833 14.1442 6.84077 10.6266C10.7666 7.25158 11.898 8.51955 12.7471 9.10687C18.1992 12.8695 22.3988 17.7035 26.4818 22.6482Z" fill="black" fill-opacity="0.2"/>
</svg>
